<mxfile host="app.diagrams.net" agent="Mozilla/5.0 (Windows NT 10.0; Win64; x64) AppleWebKit/537.36 (KHTML, like Gecko) Chrome/140.0.0.0 Safari/537.36" version="28.2.5">
  <diagram name="Página-1" id="GMFw9q9PdRHprkcPUjmt">
    <mxGraphModel dx="1665" dy="777" grid="1" gridSize="10" guides="1" tooltips="1" connect="1" arrows="1" fold="1" page="1" pageScale="1" pageWidth="827" pageHeight="1169" math="0" shadow="0">
      <root>
        <mxCell id="0" />
        <mxCell id="1" parent="0" />
        <mxCell id="MdGBa02kd2xGhYw6KQvb-6" value="" style="edgeStyle=orthogonalEdgeStyle;rounded=0;orthogonalLoop=1;jettySize=auto;html=1;" edge="1" parent="1" source="MdGBa02kd2xGhYw6KQvb-1" target="MdGBa02kd2xGhYw6KQvb-3">
          <mxGeometry relative="1" as="geometry" />
        </mxCell>
        <mxCell id="MdGBa02kd2xGhYw6KQvb-1" value="Início" style="ellipse;whiteSpace=wrap;html=1;" vertex="1" parent="1">
          <mxGeometry x="310" y="20" width="120" height="80" as="geometry" />
        </mxCell>
        <mxCell id="MdGBa02kd2xGhYw6KQvb-2" value="Fim" style="ellipse;whiteSpace=wrap;html=1;" vertex="1" parent="1">
          <mxGeometry x="310" y="780" width="120" height="80" as="geometry" />
        </mxCell>
        <mxCell id="MdGBa02kd2xGhYw6KQvb-7" value="" style="edgeStyle=orthogonalEdgeStyle;rounded=0;orthogonalLoop=1;jettySize=auto;html=1;" edge="1" parent="1" source="MdGBa02kd2xGhYw6KQvb-3" target="MdGBa02kd2xGhYw6KQvb-5">
          <mxGeometry relative="1" as="geometry" />
        </mxCell>
        <mxCell id="MdGBa02kd2xGhYw6KQvb-3" value="Ler n" style="shape=parallelogram;perimeter=parallelogramPerimeter;whiteSpace=wrap;html=1;fixedSize=1;" vertex="1" parent="1">
          <mxGeometry x="310" y="160" width="120" height="60" as="geometry" />
        </mxCell>
        <mxCell id="MdGBa02kd2xGhYw6KQvb-9" value="Sim" style="edgeStyle=orthogonalEdgeStyle;rounded=0;orthogonalLoop=1;jettySize=auto;html=1;" edge="1" parent="1" source="MdGBa02kd2xGhYw6KQvb-5" target="MdGBa02kd2xGhYw6KQvb-8">
          <mxGeometry relative="1" as="geometry" />
        </mxCell>
        <mxCell id="MdGBa02kd2xGhYw6KQvb-11" value="Não" style="edgeStyle=orthogonalEdgeStyle;rounded=0;orthogonalLoop=1;jettySize=auto;html=1;" edge="1" parent="1" source="MdGBa02kd2xGhYw6KQvb-5" target="MdGBa02kd2xGhYw6KQvb-10">
          <mxGeometry relative="1" as="geometry" />
        </mxCell>
        <mxCell id="MdGBa02kd2xGhYw6KQvb-5" value="N MOD 3 == 0" style="rhombus;whiteSpace=wrap;html=1;" vertex="1" parent="1">
          <mxGeometry x="320" y="290" width="100" height="80" as="geometry" />
        </mxCell>
        <mxCell id="MdGBa02kd2xGhYw6KQvb-8" value="Escrever o número" style="shape=parallelogram;perimeter=parallelogramPerimeter;whiteSpace=wrap;html=1;fixedSize=1;" vertex="1" parent="1">
          <mxGeometry x="540" y="300" width="120" height="60" as="geometry" />
        </mxCell>
        <mxCell id="MdGBa02kd2xGhYw6KQvb-13" value="Sim" style="edgeStyle=orthogonalEdgeStyle;rounded=0;orthogonalLoop=1;jettySize=auto;html=1;" edge="1" parent="1" source="MdGBa02kd2xGhYw6KQvb-10" target="MdGBa02kd2xGhYw6KQvb-12">
          <mxGeometry relative="1" as="geometry" />
        </mxCell>
        <mxCell id="MdGBa02kd2xGhYw6KQvb-15" value="Não" style="edgeStyle=orthogonalEdgeStyle;rounded=0;orthogonalLoop=1;jettySize=auto;html=1;" edge="1" parent="1" source="MdGBa02kd2xGhYw6KQvb-10" target="MdGBa02kd2xGhYw6KQvb-14">
          <mxGeometry relative="1" as="geometry" />
        </mxCell>
        <mxCell id="MdGBa02kd2xGhYw6KQvb-10" value="N MOD 5 == 0" style="rhombus;whiteSpace=wrap;html=1;" vertex="1" parent="1">
          <mxGeometry x="320" y="450" width="100" height="80" as="geometry" />
        </mxCell>
        <mxCell id="MdGBa02kd2xGhYw6KQvb-12" value="Escrever o número" style="shape=parallelogram;perimeter=parallelogramPerimeter;whiteSpace=wrap;html=1;fixedSize=1;" vertex="1" parent="1">
          <mxGeometry x="540" y="460" width="120" height="60" as="geometry" />
        </mxCell>
        <mxCell id="MdGBa02kd2xGhYw6KQvb-18" value="Sim" style="edgeStyle=orthogonalEdgeStyle;rounded=0;orthogonalLoop=1;jettySize=auto;html=1;" edge="1" parent="1" source="MdGBa02kd2xGhYw6KQvb-14" target="MdGBa02kd2xGhYw6KQvb-17">
          <mxGeometry relative="1" as="geometry" />
        </mxCell>
        <mxCell id="MdGBa02kd2xGhYw6KQvb-20" value="" style="edgeStyle=orthogonalEdgeStyle;rounded=0;orthogonalLoop=1;jettySize=auto;html=1;" edge="1" parent="1" source="MdGBa02kd2xGhYw6KQvb-14">
          <mxGeometry relative="1" as="geometry">
            <mxPoint x="370" y="780" as="targetPoint" />
          </mxGeometry>
        </mxCell>
        <mxCell id="MdGBa02kd2xGhYw6KQvb-14" value="N MOD 3 == 0&lt;div&gt;&lt;div&gt;N MOD 5 == 0&lt;/div&gt;&lt;/div&gt;" style="rhombus;whiteSpace=wrap;html=1;" vertex="1" parent="1">
          <mxGeometry x="310" y="610" width="120" height="80" as="geometry" />
        </mxCell>
        <mxCell id="MdGBa02kd2xGhYw6KQvb-17" value="Escrever os números" style="shape=parallelogram;perimeter=parallelogramPerimeter;whiteSpace=wrap;html=1;fixedSize=1;" vertex="1" parent="1">
          <mxGeometry x="540" y="620" width="140" height="60" as="geometry" />
        </mxCell>
      </root>
    </mxGraphModel>
  </diagram>
</mxfile>
